{"title":"Dedh ISHQIYA (2014) - 1CD - DVDSCR Rip Xvid - MP3{VikkyMaxx}","uid":9470295,"size":734914873,"categoryP":"video","categoryS":"movies","magnet":"?xt=urn:btih:c4549a32cf41d03b4b22751333128de73422752c&amp;dn=Dedh+ISHQIYA+%282014%29+-+1CD+-+DVDSCR+Rip+Xvid+-+MP3%7BVikkyMaxx%7D&amp;tr=udp%3A%2F%2Ftracker.openbittorrent.com%3A80&amp;tr=udp%3A%2F%2Fopen.demonii.com%3A1337&amp;tr=udp%3A%2F%2Ftracker.coppersurfer.tk%3A6969&amp;tr=udp%3A%2F%2Fexodus.desync.com%3A6969","seeders":1,"leechers":0,"uploader":"shailendramaxx","files":-1,"time":1389551071,"description":"\n\nComplete name                            : Dedh-Ishqiya-DVDScr-XviD{VikkyMaxx}.avi\nFormat                                   : AVI\nFormat/Info                              : Audio Video Interleave\nFile size                                : 693 MiB\nDuration                                 : 2h 25mn\nOverall bit rate                         : 664 Kbps\n\n                      A BIG THANKS TO - Team ICTV\n\n\nVideo:-\n\nID                                       : 0\nFormat                                   : MPEG-4 Visual\nFormat profile                           : Advanced Simple@L5\nFormat settings, BVOP                    : 2\nFormat settings, QPel                    : No\nFormat settings, GMC                     : No warppoints\nFormat settings, Matrix                  : Default (H.263)\nCodec ID                                 : XVID\nCodec ID/Hint                            : XviD\nDuration                                 : 2h 25mn\nBit rate                                 : 578 Kbps\nWidth                                    : 640 pixels\nHeight                                   : 288 pixels\nDisplay aspect ratio                     : 2.222\nFrame rate                               : 25.000 fps\nColor space                              : YUV\nChroma subsampling                       : 4:2:0\nBit depth                                : 8 bits\nScan type                                : Progressive\nCompression mode                         : Lossy\nBits/(Pixel*Frame)                       : 0.125\nStream size                              : 604 MiB (87%)\nWriting library                          : XviD 1.2.1 (UTC 2008-12-04)\n\nAudio:-\n\nID                                       : 1\nFormat                                   : MPEG Audio\nFormat version                           : Version 1\nFormat profile                           : Layer 3\nMode                                     : Joint stereo\nCodec ID                                 : 55\nCodec ID/Hint                            : MP3\nDuration                                 : 2h 25mn\nBit rate mode                            : Constant\nBit rate                                 : 80.0 Kbps\nChannel(s)                               : 2 channels\nSampling rate                            : 32.0 KHz\nCompression mode                         : Lossy\nStream size                              : 83.5 MiB (12%)\nAlignment                                : Aligned on interleaves\nInterleave, duration                     : 160 ms (4.00 video frames)\nInterleave, preload duration             : 216 ms\nTitle                                    : dah Tc0 L2 2ch 48 128 DELAY 0ms\nWriting library                          : LAME3.99r\nEncoding settings                        : -m j -V 4 -q 2 -lowpass 13.5\n\n LANGUAGE -HINDI\n\n\nSCREENS:-\n\n[URL=http://imgur.com/D2sIJTK][IMG]http://i.imgur.com/D2sIJTK.jpg[/IMG][/URL]\n\n[URL=http://imgur.com/bxOps0v][IMG]http://i.imgur.com/bxOps0v.jpg[/IMG][/URL]\n\n[URL=http://imgur.com/vpg7Fzu][IMG]http://i.imgur.com/vpg7Fzu.jpg[/IMG][/URL]\n\n[URL=http://imgur.com/qoo0E8g][IMG]http://i.imgur.com/qoo0E8g.jpg[/IMG][/URL]\n\n[URL=http://imgur.com/wvVJlAG][IMG]http://i.imgur.com/wvVJlAG.jpg[/IMG][/URL]\n\n[URL=http://imgur.com/xEYD2AI][IMG]http://i.imgur.com/xEYD2AI.jpg[/IMG][/URL]\n\n[URL=http://imgur.com/0ZkyUO4][IMG]http://i.imgur.com/0ZkyUO4.jpg[/IMG][/URL]\n\n[URL=http://imgur.com/xSmWpep][IMG]http://i.imgur.com/xSmWpep.jpg[/IMG][/URL]\n\nSAMPLE AND SCREENSHOTS INCLUDED\n\n ********** PLEASE SEED AS LONG AS YOU CAN AFTER DOWNLOAD **********\n       \n                     ***** THANK YOU REGARDS - VIKKYMAXX *****","torrent":{"xt":"urn:btih:c4549a32cf41d03b4b22751333128de73422752c","amp;dn":"Dedh+ISHQIYA+%282014%29+-+1CD+-+DVDSCR+Rip+Xvid+-+MP3%7BVikkyMaxx%7D","amp;tr":["udp%3A%2F%2Ftracker.openbittorrent.com%3A80","udp%3A%2F%2Fopen.demonii.com%3A1337","udp%3A%2F%2Ftracker.coppersurfer.tk%3A6969","udp%3A%2F%2Fexodus.desync.com%3A6969"],"infoHash":"c4549a32cf41d03b4b22751333128de73422752c","infoHashBuffer":{"type":"Buffer","data":[196,84,154,50,207,65,208,59,75,34,117,19,51,18,141,231,52,34,117,44]},"announce":[],"urlList":[]}}